# xmcd
#
# Track frame offsets:
#  150
#  15620
#  30505
#  47727
#  63960
#  76352
#  91565
#  114962
#  131832
#  146257
#  162307
#
# Disc length: 2297 seconds
#
# Revision: 0
# Processed by: cddbd v1.5.1PL0 Copyright (c) Steve Scherf et al.
# Submitted via: Collectorz.com Music Collector 6.9
#
DISCID=7e08f70b
DTITLE=Trisha Yearwood - Jasper County
DYEAR=2005
DGENRE=Country
TTITLE0=Who Invented The Wheel
TTITLE1=Pistol
TTITLE2=Trying To Love You
TTITLE3=River Of You
TTITLE4=Baby Don't You Let Go
TTITLE5=Standing Out In A Crowd
TTITLE6=Georgia Rain
TTITLE7=Sweet Love
TTITLE8=Try Me
TTITLE9=Gimme The Good Stuff
TTITLE10=It's Alright
EXTD=
EXTT0=
EXTT1=
EXTT2=
EXTT3=
EXTT4=
EXTT5=
EXTT6=
EXTT7=
EXTT8=
EXTT9=
EXTT10=
PLAYORDER=
